<svg xmlns="http://www.w3.org/2000/svg" width="960" height="720" viewBox="0 0 960 720" role="img" aria-labelledby="t"><title id="t">Ilustracija sofe – mesto za buduće fotografije dubinskog čišćenja</title><defs><linearGradient id="g" x1="0" x2="1" y1="0" y2="1"><stop stop-color="#e8e3d9"/><stop offset="1" stop-color="#c8c2b5"/></linearGradient><pattern id="p" width="25" height="25" patternUnits="userSpaceOnUse"><path d="M25 0H0V25" fill="none" stroke="#fff" stroke-opacity=".11"/></pattern></defs><rect width="960" height="720" fill="url(#g)"/><rect width="960" height="720" fill="url(#p)"/><circle cx="780" cy="110" r="215" fill="#d8c6a3" opacity=".42"/><g fill="none" stroke="#112941" stroke-width="14" stroke-linecap="round" stroke-linejoin="round" opacity=".77"><rect x="202" y="327" width="558" height="175" rx="48"/><path d="M263 335v-47c0-50 33-77 78-77h277c46 0 80 29 80 78v47M204 443h-31c-18 0-32 14-32 32v63c0 19 14 33 32 33h615c18 0 32-14 32-33v-63c0-18-14-32-32-32h-29M227 572v43m505-43v43M477 229v106"/></g><path d="M150 650h660" stroke="#bd9964" stroke-width="2"/><text x="480" y="684" font-family="sans-serif" font-size="16" text-anchor="middle" fill="#4d5962" letter-spacing="4">FOTOGRAFIJE USKORO</text></svg>
